HIERARCHY
ROOT Hips
{
  OFFSET 0 0 0
  CHANNELS 6 Xposition Yposition Zposition Zrotation Yrotation Xrotation
  JOINT LeftThigh
  {
    OFFSET 8.409438 0 -5.917753
    CHANNELS 3 Zrotation Yrotation Xrotation
    JOINT LeftLeg
    {
      OFFSET 0 0 -42.358652
      CHANNELS 3 Zrotation Yrotation Xrotation
      JOINT LeftFoot
      {
        OFFSET 0 0 -39.357303
        CHANNELS 3 Zrotation Yrotation Xrotation
      }
    }
  }
  JOINT RightThigh
  {
    OFFSET -8.409438 0 -5.917753
    CHANNELS 3 Zrotation Yrotation Xrotation
    JOINT RightLeg
    {
      OFFSET 0 0 -42.358652
      CHANNELS 3 Zrotation Yrotation Xrotation
      JOINT RightFoot
      {
        OFFSET 0 0 -39.357303
        CHANNELS 3 Zrotation Yrotation Xrotation
      }
    }
  }
  JOINT SpineLow
  {
    OFFSET 0 0 4.719101
    CHANNELS 3 Zrotation Yrotation Xrotation
    JOINT SpineMid
    {
      OFFSET 0 0 12.899191
      CHANNELS 3 Zrotation Yrotation Xrotation
      JOINT Chest
      {
        OFFSET 0 0 12.899191
        CHANNELS 3 Zrotation Yrotation Xrotation
        JOINT LeftShoulder
        {
          OFFSET 7.550562 1.41573 9.438202
          CHANNELS 3 Zrotation Yrotation Xrotation
          JOINT LeftArm
          {
            OFFSET 9.155056 0 4.247191
            CHANNELS 3 Zrotation Yrotation Xrotation
            JOINT LeftForearm
            {
              OFFSET 0 0 25.771955
              CHANNELS 3 Zrotation Yrotation Xrotation
              JOINT LeftHand
              {
                OFFSET 0 0 25.197169
                CHANNELS 3 Zrotation Yrotation Xrotation
              }
            }
          }
        }
        JOINT RightShoulder
        {
          OFFSET -7.550562 1.41573 9.438202
          CHANNELS 3 Zrotation Yrotation Xrotation
          JOINT RightArm
          {
            OFFSET -9.155056 0 4.247191
            CHANNELS 3 Zrotation Yrotation Xrotation
            JOINT RightForearm
            {
              OFFSET 0 0 -25.771955
              CHANNELS 3 Zrotation Yrotation Xrotation
              JOINT RightHand
              {
                OFFSET 0 0 -25.197169
                CHANNELS 3 Zrotation Yrotation Xrotation
              }
            }
          }
        }
        JOINT Neck
        {
          OFFSET 0 0 15.101124
          CHANNELS 3 Zrotation Yrotation Xrotation
          JOINT Head
          {
            OFFSET 0 0 11.325843
            CHANNELS 3 Zrotation Yrotation Xrotation
            End Site
            {
              OFFSET 0 0 14.157303
            }
          }
        }
      }
    }
  }
}
MOTION
Frames: 14
Frame Time: 0.0
0.0  101.685394  0.0  -2.982609  -30.175003  -99.528582  21.601649  -30.209382  -30.33813  1.975854  18.899489  56.678005  -0.950759  4.891572  2.594384  -2.535046  -6.762376  15.77674  -30.543194  25.318423  5.775333  22.723318  13.55091  -2.069861  -3.802763  -0.734382  0.677963  -10.416779  -1.895033  1.963679  -10.416778  -1.895033  1.963679  14.141115  27.619115  22.553469  -167.344956  64.569253  -134.751794  -50.21268  -21.252189  104.650578  52.416116  -2.47613  -9.454786  31.085348  -4.676544  41.888627  101.060412  31.841644  40.524483  -13.833929  4.756975  -106.398424  80.80455  10.727397  62.351125  13.716972  -1.774548  0.473846  10.288288  -1.321064  0.395444  
0.0  101.685394  0.0  -2.528554  -30.04274  -100.059325  21.136493  -30.449824  -30.19457  2.711996  19.168845  56.949708  -0.784091  4.879878  2.704806  -1.535898  -7.281059  16.080218  -30.455433  25.669503  5.908466  21.877505  13.693057  -1.901065  -3.741362  -0.65163  0.608002  -10.244337  -1.682221  1.75835  -10.244336  -1.682221  1.758349  14.752648  27.569818  23.413811  -168.617056  64.311696  -135.519974  -50.385964  -21.611674  105.6103  52.569877  -1.987724  -9.319794  31.269117  -5.091369  42.438184  100.472178  32.264702  40.28925  -14.950635  6.416113  -107.055049  80.555693  8.587615  62.37008  13.546517  -1.967495  0.675023  10.161075  -1.46151  0.550177  
0.0  101.685394  0.0  -2.432698  -28.886072  -99.921737  20.519064  -30.44197  -30.390699  2.706376  19.653364  56.610774  -0.585118  4.862017  2.826394  -1.914228  -7.698415  16.112451  -30.566392  25.823988  5.695531  21.036705  13.905738  -1.950326  -3.789627  -0.601053  0.504364  -10.372371  -1.559293  1.469026  -10.372371  -1.559293  1.469026  15.002217  27.604827  23.982379  -169.782729  64.332613  -136.087885  -50.636858  -22.334696  106.612401  52.736239  -1.740761  -9.317138  31.247143  -5.558442  42.694675  99.913257  32.81965  40.107006  -15.771451  8.398065  -107.830765  80.121572  5.931896  62.925167  13.208455  -2.146098  0.602118  9.907306  -1.597445  0.498226  
0.0  101.685394  0.0  -2.056024  -28.467941  -100.235875  20.476915  -30.401616  -30.197733  2.789453  20.063979  56.346315  -0.560017  4.815818  2.855528  -1.913627  -7.664905  16.561999  -30.906367  25.948195  5.189449  20.652021  13.867969  -2.103348  -3.718268  -0.52371  0.524332  -10.17563  -1.347055  1.509904  -10.17563  -1.347055  1.509904  15.432482  27.852912  24.205501  -170.973447  64.658158  -136.460036  -50.901935  -23.168506  107.737598  53.014308  -1.573437  -9.436718  30.381483  -5.892075  42.000569  100.461546  32.806926  40.584833  -16.892699  9.931758  -108.559075  79.91781  3.114274  63.052974  12.887259  -2.231755  0.158695  9.664801  -1.671351  0.166188  
0.0  101.685394  0.0  -2.05924  -27.23684  -99.957014  19.970453  -30.317023  -30.536584  2.692797  20.522637  55.994339  -0.408681  4.760592  2.926075  -2.781412  -7.592666  16.600903  -31.564749  25.947889  4.598899  20.867779  13.756865  -2.19993  -3.725039  -0.490516  0.536892  -10.193474  -1.254481  1.539146  -10.193474  -1.254481  1.539146  15.357827  28.097112  24.003058  -172.245122  65.129143  -136.898495  -51.212064  -24.074038  108.833765  53.4515  -1.338936  -9.680304  30.158559  -6.104035  41.475018  100.1799  33.666891  40.426166  -18.310097  10.654523  -109.682352  80.26654  -0.108397  62.589594  12.402145  -2.287145  -0.539198  9.298364  -1.727146  -0.358073  
0.0  101.685394  0.0  -1.75254  -26.783089  -100.157169  20.190353  -30.139521  -30.488422  2.428853  21.057604  55.563878  -0.277733  4.694207  2.955264  -2.789175  -7.225702  16.930987  -32.471423  25.725079  4.049979  21.098798  13.657653  -2.256566  -3.602169  -0.419706  0.597958  -9.856636  -1.055294  1.692847  -9.856636  -1.055294  1.692847  15.443472  28.287003  23.816276  -173.833264  65.722266  -137.584035  -51.4953  -24.952237  109.939711  53.910992  -0.999269  -10.038219  29.761144  -6.357189  40.871849  100.262492  34.636638  40.422358  -19.549489  10.99736  -110.806303  80.886228  -3.306887  62.020269  11.516882  -2.382143  -1.461313  8.63078  -1.814921  -1.051347  
0.0  101.685394  0.0  -1.721355  -25.605709  -99.838943  19.970725  -29.853155  -30.939131  2.185632  21.410652  55.279192  -0.307025  4.644471  2.897674  -3.285749  -7.028805  16.810255  -33.39521  25.491305  3.674149  21.535905  13.681048  -2.230111  -3.572148  -0.389479  0.591289  -9.773622  -0.974657  1.669733  -9.773623  -0.974657  1.669733  15.307118  28.439004  23.57309  -175.581218  66.2727  -138.642105  -51.737704  -25.768564  111.05486  54.299727  -0.597608  -10.394312  29.47049  -6.660454  40.386039  100.261005  35.923392  40.366317  -20.758726  11.139713  -111.887649  81.590822  -6.514912  61.181356  10.945081  -2.410252  -2.100185  8.199432  -1.846028  -1.532294  
0.0  101.685394  0.0  -1.226237  -25.13663  -99.939382  20.335136  -29.271752  -31.052118  1.934354  21.660094  55.040131  -0.443377  4.62358  2.795589  -2.832874  -6.643868  16.805383  -34.279332  25.310465  3.454898  21.691511  13.678441  -2.135073  -3.435883  -0.321243  0.5928  -9.399288  -0.79189  1.662252  -9.399288  -0.79189  1.662252  15.147111  28.561014  23.388996  -177.357658  66.672019  -139.967683  -51.983653  -26.49263  112.218198  54.65376  -0.140658  -10.519767  29.16797  -6.920166  39.913594  100.519858  37.276759  40.492639  -22.141021  11.089001  -113.048086  82.414518  -9.962613  59.779396  10.370209  -2.374099  -2.615385  7.766552  -1.825614  -1.921604  
0.0  101.685394  0.0  -0.93536  -24.119735  -99.638563  20.288896  -28.570954  -31.492787  1.658641  21.807768  54.795463  -0.614925  4.598461  2.663274  -2.782549  -6.520507  16.37163  -34.892384  25.325206  3.439854  21.668408  13.733348  -1.975718  -3.386369  -0.280133  0.547174  -9.262406  -0.687436  1.531499  -9.262406  -0.687436  1.531499  15.080524  28.644023  23.177511  -179.45921  67.109997  -141.710021  -52.320024  -27.134516  113.471467  55.008938  0.431465  -10.293563  29.078054  -7.153709  39.539048  100.65944  38.972605  40.569822  -23.733546  11.003699  -114.192458  83.341714  -13.621101  57.790531  9.868939  -2.316227  -2.991295  7.389569  -1.786074  -2.206423  
0.0  101.685394  0.0  -0.378005  -23.583173  -99.772603  20.525998  -27.79797  -31.459034  1.412007  21.954614  54.520613  -0.774235  4.549957  2.505945  -2.248809  -6.277981  16.15429  -35.254225  25.352032  3.679347  21.364534  13.910703  -1.839701  -3.237388  -0.189242  0.541729  -8.852931  -0.443756  1.503037  -8.852931  -0.443756  1.503036  14.637811  28.494675  22.883624  178.613519  67.40254  -143.569789  -52.671058  -27.693476  114.779844  55.38538  1.104553  -9.85646  28.892327  -7.456504  39.183119  100.891503  40.909829  40.716643  -25.581563  10.886418  -115.267557  84.46185  -17.403996  55.15851  9.225009  -2.29291  -3.291969  6.905719  -1.769909  -2.434676  
0.0  101.685394  0.0  -0.040234  -22.665861  -99.557303  20.522363  -26.988991  -31.647029  1.071382  22.095057  54.105049  -0.790832  4.496345  2.383635  -2.074391  -6.204236  15.68688  -35.312553  25.469025  3.987791  20.95388  14.10831  -1.667139  -3.140146  -0.11504  0.486928  -8.585231  -0.250682  1.343315  -8.58523  -0.250682  1.343315  14.366742  28.228288  22.582965  176.243024  67.820079  -145.895916  -52.860442  -28.124273  116.074649  55.808248  1.870199  -9.399151  28.70218  -7.875775  38.844634  101.106665  43.102149  40.902634  -27.517479  10.624212  -116.293698  85.915138  -21.26426  51.939358  8.671492  -2.298116  -3.394805  6.490217  -1.772239  -2.513737  
0.0  101.685394  0.0  0.331198  -21.78405  -99.378515  20.391272  -26.179584  -31.744445  1.033219  22.157027  53.781975  -0.955331  4.272328  2.1849  -1.920617  -6.046801  15.277004  -35.247932  25.585163  4.339204  20.468862  14.296785  -1.537428  -3.040793  -0.025546  0.41981  -8.311858  -0.016976  1.148632  -8.311859  -0.016976  1.148632  14.032988  27.786941  22.226  173.900938  68.167007  -148.420934  -52.822358  -28.44509  117.35333  56.326743  2.745564  -9.105225  28.570275  -8.371337  38.492396  101.295453  45.512614  41.091843  -29.403924  10.139903  -117.185648  87.859676  -24.94657  48.154895  8.145996  -2.334429  -3.400117  6.095885  -1.796582  -2.519134  
0.0  101.685394  0.0  0.751541  -20.782207  -99.200473  20.174127  -25.284355  -31.709923  0.941662  22.131827  53.272626  -1.063161  4.105463  2.152712  -1.744605  -5.853932  14.947431  -35.444966  25.676577  4.540035  20.082864  14.485619  -1.436186  -2.959082  0.086208  0.347866  -8.086965  0.277747  0.938691  -8.086965  0.277747  0.938692  13.664268  27.191381  21.797412  171.76312  68.567646  -150.930043  -52.506607  -28.619356  118.534958  56.901039  3.579642  -8.866695  28.475965  -8.917047  38.038819  101.412137  48.14478  41.267921  -31.153598  9.371989  -117.999925  90.476953  -28.403761  43.875952  7.633933  -2.448786  -3.347783  5.711363  -1.878816  -2.480308  
0.0  101.685394  0.0  1.233467  -19.651355  -99.026325  19.791788  -24.323866  -31.641547  1.022672  21.942174  52.829052  -1.74022  3.865532  2.040398  -1.647331  -5.558567  14.679397  -35.78469  25.722674  4.6157  19.769277  14.635264  -1.344681  -2.888787  0.220144  0.282105  -7.89374  0.63441  0.743592  -7.89374  0.63441  0.743593  13.066974  26.463326  21.209537  169.849985  69.090138  -153.508381  -52.095721  -28.661965  119.61977  57.518533  4.30003  -8.47485  28.341406  -9.470448  37.364263  101.449278  50.963363  41.398932  -32.727286  8.348238  -118.665442  93.802465  -31.443584  39.075327  7.088963  -2.638678  -3.327926  5.301594  -2.017996  -2.46527  
